# Blender 4.5.4 LTS
# www.blender.org
mtllib Basic Spacecraft.mtl
o Куб
v -1.549701 -0.883156 1.511437
v -1.549701 1.131942 1.511437
v -1.549701 -0.883156 -0.007333
v -1.549701 1.131942 -0.007333
v 1.630818 -0.883156 1.511437
v 1.630818 1.131942 1.511437
v 1.630818 -0.883156 -0.007333
v 1.630818 1.131942 -0.007333
v -0.993054 -0.525271 2.831579
v -0.993054 0.774057 2.831579
v 1.074171 -0.525271 2.831579
v 1.074171 0.774057 2.831579
v -0.877783 -0.364654 4.063258
v -0.877783 0.613440 4.063258
v 0.958899 -0.364654 4.063258
v 0.958899 0.613440 4.063258
v -0.877783 -0.364654 5.268489
v -0.877783 0.613440 5.268489
v 0.958899 -0.364654 5.268489
v 0.958899 0.613440 5.268489
v -0.877783 -0.364654 6.491484
v -0.877783 0.613440 6.491484
v 0.958899 -0.364654 6.491484
v 0.958899 0.613440 6.491484
v -1.171386 -0.393503 -1.007333
v -1.171386 0.642289 -1.007333
v 1.252502 -0.393503 -1.007333
v 1.252502 0.642289 -1.007333
v -0.665884 -0.121848 -1.287618
v -0.665884 0.370634 -1.287618
v 0.747001 -0.121848 -1.287618
v 0.747001 0.370634 -1.287618
v -0.713622 -0.277233 7.491484
v -0.713622 0.526019 7.491484
v 0.794738 -0.277233 7.491484
v 0.794738 0.526019 7.491484
vn -1.0000 -0.0000 -0.0000
vn -0.0000 -0.8981 -0.4398
vn 1.0000 -0.0000 -0.0000
vn -0.0000 0.9652 0.2617
vn -0.0000 -1.0000 -0.0000
vn -0.0000 1.0000 -0.0000
vn -0.0000 -0.9916 0.1293
vn 0.9214 -0.0000 0.3885
vn -0.9214 -0.0000 0.3885
vn -0.0000 -0.9652 0.2617
vn -0.9956 -0.0000 0.0932
vn -0.0000 0.9916 0.1293
vn 0.9956 -0.0000 0.0932
vn 0.9868 -0.0000 0.1620
vn -0.0000 0.7181 -0.6960
vn -0.0000 0.8981 -0.4398
vn -0.9353 -0.0000 -0.3538
vn 0.9353 -0.0000 -0.3538
vn -0.0000 -0.0000 -1.0000
vn -0.4849 -0.0000 -0.8746
vn 0.4849 -0.0000 -0.8746
vn -0.0000 -0.7181 -0.6960
vn -0.0000 -0.0000 1.0000
vn -0.0000 -0.9962 0.0871
vn -0.9868 -0.0000 0.1620
vn -0.0000 0.9962 0.0871
vt 0.375000 0.000000
vt 0.625000 0.000000
vt 0.625000 0.250000
vt 0.375000 0.250000
vt 0.375000 0.500000
vt 0.125000 0.500000
vt 0.625000 0.500000
vt 0.625000 0.750000
vt 0.375000 0.750000
vt 0.875000 0.750000
vt 0.125000 0.750000
vt 0.875000 0.500000
vt 0.625000 1.000000
vt 0.375000 1.000000
s 0
f 1/1/1 2/2/1 4/3/1 3/4/1
f 7/5/2 3/6/2 25/6/2 27/5/2
f 7/5/3 8/7/3 6/8/3 5/9/3
f 6/8/4 2/10/4 10/10/4 12/8/4
f 3/6/5 7/5/5 5/9/5 1/11/5
f 8/7/6 4/12/6 2/10/6 6/8/6
f 9/11/7 11/9/7 15/9/7 13/11/7
f 5/9/8 6/8/8 12/8/8 11/9/8
f 2/2/9 1/1/9 9/1/9 10/2/9
f 1/11/10 5/9/10 11/9/10 9/11/10
f 13/11/5 15/9/5 19/9/5 17/11/5
f 10/2/11 9/1/11 13/1/11 14/2/11
f 12/8/12 10/10/12 14/10/12 16/8/12
f 11/9/13 12/8/13 16/8/13 15/9/13
f 20/8/6 18/10/6 22/10/6 24/8/6
f 14/2/1 13/1/1 17/1/1 18/2/1
f 16/8/6 14/10/6 18/10/6 20/8/6
f 15/9/3 16/8/3 20/8/3 19/9/3
f 23/9/14 24/8/14 36/8/14 35/9/14
f 19/9/3 20/8/3 24/8/3 23/9/3
f 17/11/5 19/9/5 23/9/5 21/11/5
f 18/2/1 17/1/1 21/1/1 22/2/1
f 26/12/15 28/7/15 32/7/15 30/12/15
f 4/12/16 8/7/16 28/7/16 26/12/16
f 3/4/17 4/3/17 26/3/17 25/4/17
f 8/7/18 7/5/18 27/5/18 28/7/18
f 29/4/19 30/3/19 32/7/19 31/5/19
f 25/4/20 26/3/20 30/3/20 29/4/20
f 28/7/21 27/5/21 31/5/21 32/7/21
f 27/5/22 25/6/22 29/6/22 31/5/22
f 35/9/23 36/8/23 34/13/23 33/14/23
f 21/11/24 23/9/24 35/9/24 33/11/24
f 22/2/25 21/1/25 33/1/25 34/2/25
f 24/8/26 22/10/26 34/10/26 36/8/26
